# xmcd
#
# Track frame offsets:
#	150
#	19354
#	32791
#	48793
#	64655
#	81797
#	96676
#	122243
#	145923
#	167062
#	185182
#	198932
#	213814
#	236057
#	249767
#	268952
#	288729
#	306392
#	327729
#
# Disc length: 4664 seconds
#
# Revision: 0
# Processed by: cddbd v1.5.1PL0 Copyright (c) Steve Scherf et al.
# Submitted via: dBpowerAMP V4.0
#
DISCID=2b123613
DTITLE=jaarli padington - jaarli padington
DYEAR=1900
DGENRE=
TTITLE0=v‰‰r‰ valtias
TTITLE1=tuu mukaan
TTITLE2=ohikiit‰v‰‰
TTITLE3=hiekka ja pisara
TTITLE4=giljotiini
TTITLE5=ilkeit‰ ja rumia
TTITLE6=laiskuri ja saituri
TTITLE7=piispa ja lalli
TTITLE8=KAUPUNKIIN
TTITLE9=irlanti
TTITLE10=sinun oon
TTITLE11=unelmia kerrakseen
TTITLE12=mut hulluks teet
TTITLE13=oppia el‰m‰‰n
TTITLE14=yli pyh‰nsel‰n
TTITLE15=tosi tarkoituksella
TTITLE16=n‰hd‰ selvemmin
TTITLE17=kauan ootin
TTITLE18=rantakallio
EXTD=jaarli padington\n
EXTT0=
EXTT1=
EXTT2=
EXTT3=
EXTT4=
EXTT5=
EXTT6=
EXTT7=
EXTT8=
EXTT9=
EXTT10=
EXTT11=
EXTT12=
EXTT13=
EXTT14=
EXTT15=
EXTT16=
EXTT17=
EXTT18=
PLAYORDER=
